<svg xmlns="http://www.w3.org/2000/svg" viewBox="0 0 738.893 171.155"><defs><style>.a{fill:#607d8b;}.b{fill:#ff4081;fill-rule:evenodd;}</style></defs><title>boostr-logo-with-icon</title><path class="a" d="M410.427,426.075c12.607-.01,20.292,2.348,27.191,8.252a31.816,31.816,0,0,1,11.051,24.615c.01,12.016-4.318,19.308-15.541,26.212,8.275,2.358,12.02,4.325,16.554,8.261,7.1,6.3,10.649,14.766,10.657,25.009.018,22.063-17.5,39.018-40.351,39.037l-35.853.028c-10.243.008-13-.777-17.142-4.714-3.943-4.133-4.733-6.89-4.741-17.134l-.07-87.661c-.008-9.259.581-11.623,3.139-15.171,3.542-4.73,8.072-6.705,14.966-6.71l3.743,0Zm-3.112,50.038c7.485-.006,12.8-5.132,12.794-12.617,0-6.5-5.919-11.224-14-11.218l-13.789.011.019,23.836Zm5.954,55.154c6.7-.006,9.651-.994,12.407-4.344a14.217,14.217,0,0,0,3.341-9.459c-.008-9.652-5.527-14.376-16.559-14.366l-20.093.015.023,28.17Z" transform="translate(-143.845 -403.993)"/><path class="a" d="M548.631,471.272c8.478,9.252,13.019,22.053,13.03,36.237.024,29.549-20.642,51.824-48.221,51.846a48.323,48.323,0,0,1-35.471-15.73c-8.676-9.449-13.019-21.855-13.031-36.826-.023-28.761,21.037-51.236,48.419-51.257A48.224,48.224,0,0,1,548.631,471.272Zm-55.129,35.9c.012,14.578,8.294,25.208,19.326,25.2,11.425-.009,20.28-11.047,20.27-25.033-.011-13.79-8.885-24.814-20.31-24.805C501.953,482.539,493.491,493.38,493.5,507.169Z" transform="translate(-143.845 -403.993)"/><path class="a" d="M649.725,471.192c8.477,9.251,13.018,22.052,13.03,36.236.023,29.549-20.643,51.825-48.222,51.846a48.326,48.326,0,0,1-35.471-15.73c-8.675-9.448-13.019-21.856-13.031-36.826-.023-28.761,21.037-51.236,48.419-51.257A48.227,48.227,0,0,1,649.725,471.192Zm-55.129,35.9c.011,14.578,8.294,25.209,19.325,25.2,11.426-.01,20.281-11.048,20.27-25.034-.011-13.79-8.884-24.814-20.31-24.805C603.047,482.458,594.585,493.3,594.6,507.088Z" transform="translate(-143.845 -403.993)"/><path class="a" d="M739.967,475.256c0,6.5-5.31,12.612-11.219,12.617-3.152,0-3.35,0-12.217-3.931C712.2,481.976,708.453,481,705.5,481c-4.727,0-7.682,1.976-7.679,5.128,0,3.742,1.579,4.726,15.176,10.034,12.809,5.112,16.947,7.472,22.074,12.59a26.132,26.132,0,0,1,7.105,18.117c.015,19.109-15.535,32.319-38.19,32.337-19.7.016-37.042-9.819-37.05-20.85-.006-6.7,5.9-13.007,12-13.012,3.349,0,3.349,0,14.975,5.109,4.731,2.164,8.474,3.147,11.626,3.144,4.728,0,8.468-2.962,8.465-6.7,0-3.35-2.171-5.121-11.039-8.462-14.384-5.308-18.325-7.275-23.253-10.817-6.9-4.919-9.859-11.418-9.866-20.873-.015-17.926,15.931-31.334,37.207-31.351C724.585,455.373,739.958,464.619,739.967,475.256Z" transform="translate(-143.845 -403.993)"/><path class="a" d="M791.354,539.237c0,6.9-.191,8.668-1.961,12.018-2.164,4.336-7.284,7.295-12.4,7.3-5.319,0-10.442-2.947-12.613-7.279-1.775-3.347-1.975-4.922-1.979-12.014l-.045-55.749c-7.683.006-12.017-1.172-14.581-4.322a13.3,13.3,0,0,1-3.356-8.665c0-6.7,4.325-11.823,11.219-12.814,1.969-.4,1.969-.4,6.7-.4l-.012-14.971c0-6.895.191-8.668,1.962-11.821,2.163-4.336,7.283-7.295,12.6-7.3,5.121,0,10.245,2.947,12.415,7.082,1.775,3.347,1.974,4.923,1.979,12.015l.012,14.971,5.318,0c6.3-.005,7.881.191,11.035,1.764a13,13,0,0,1,6.508,11.223c0,4.728-2.75,9.458-6.491,11.431-3.15,1.578-4.529,1.776-11.03,1.781l-5.318,0Z" transform="translate(-143.845 -403.993)"/><path class="a" d="M819.112,472.435c-.008-10.046,5.7-16.552,14.564-16.559,6.5,0,11.231,3.34,14.389,10.232,8.07-8.083,13.19-10.845,19.887-10.85a14.8,14.8,0,0,1,14.786,14.959c.006,6.9-2.947,9.655-14.763,13.21-15.755,5.135-19.889,9.078-19.88,19.322l.029,36.443c0,6.895-.19,8.667-1.962,12.018-2.163,4.336-7.282,7.294-12.4,7.3-5.319,0-10.443-2.947-12.613-7.28-1.775-3.346-1.974-4.922-1.979-12.014Z" transform="translate(-143.845 -403.993)"/><path class="b" d="M183.623,535.322c5.336,5.375,3.4,15.637-4.366,23.456-8.974,9.284-30.8,15.148-31.774,15.392l-3.638.978.97-3.665c.243-.978,6.792-23.456,15.281-31.763,4.608-4.642,10.429-7.33,15.523-7.33A10.546,10.546,0,0,1,183.623,535.322ZM315,408.923c0,42.859-8.37,75-49.066,112.651.577,20.271-5.484,36.488-18.472,49.519l-4.041,4.055L218.31,538.08l-6.1-1.712h0A42.789,42.789,0,0,1,182.488,506.4l-1.7-6.252L143.845,474.66l4.329-4.054c12.988-13.032,29.44-19.113,49.644-18.244,37.81-40.543,69.847-48.652,112.564-48.362H315Zm-52.657,27.195c-11.605-.663-21.551,8.61-22.214,20.533a21.645,21.645,0,0,0,20.556,22.189c11.936.662,21.551-8.611,22.215-20.533A21.645,21.645,0,0,0,262.343,436.118Z" transform="translate(-143.845 -403.993)"/></svg>